Coordinates
version=1
nRows=5
nColumns=63
inDegrees=yes

Units are S.I. units (second, meters, Newtons, ...)
If the header above contains a line with 'inDegrees', this indicates whether rotational values are in degrees (yes) or radians (no).

endheader
time	pelvis_tilt	pelvis_list	pelvis_rotation	pelvis_tx	pelvis_ty	pelvis_tz	hip_flexion_r	hip_adduction_r	hip_rotation_r	knee_angle_r	knee_angle_r_beta	ankle_angle_r	subtalar_angle_r	mtp_angle_r	hip_flexion_l	hip_adduction_l	hip_rotation_l	knee_angle_l	knee_angle_l_beta	ankle_angle_l	subtalar_angle_l	mtp_angle_l	L5_S1_Flex_Ext	L5_S1_Lat_Bending	L5_S1_axial_rotation	L4_L5_Flex_Ext	L4_L5_Lat_Bending	L4_L5_axial_rotation	L3_L4_Flex_Ext	L3_L4_Lat_Bending	L3_L4_axial_rotation	L2_L3_Flex_Ext	L2_L3_Lat_Bending	L2_L3_axial_rotation	L1_L2_Flex_Ext	L1_L2_Lat_Bending	L1_L2_axial_rotation	L1_T12_Flex_Ext	L1_T12_Lat_Bending	L1_T12_axial_rotation	Abs_r3	Abs_r2	Abs_r1	Abs_t1	Abs_t2	neck_flexion	neck_bending	neck_rotation	arm_flex_r	arm_add_r	arm_rot_r	elbow_flex_r	pro_sup_r	wrist_flex_r	wrist_dev_r	arm_flex_l	arm_add_l	arm_rot_l	elbow_flex_l	pro_sup_l	wrist_flex_l	wrist_dev_l
      0.00000000	      2.67637136	     -5.84920478	     83.17285666	      0.22574293	      0.69374011	      0.76507599	      6.97779769	      0.68705315	     -0.21050542	      9.04787878	      0.15791527	     34.06514736	     16.40057166	      0.00000000	      7.09653599	     -3.79444942	    -23.67389524	     11.94456372	      0.20847196	     40.12053737	      9.44792145	      0.00000000	     -0.07777599	      0.13064071	      1.54591468	     -0.14443779	      0.17375215	      1.64253435	     -0.12777818	      0.31763983	      1.64253435	     -0.08889018	      0.31763983	      1.35267534	     -0.07222279	      0.26640254	      1.25605568	     -0.04444120	      0.20236247	      1.15943601	     -0.55554613	      1.47783389	      8.59791366	      0.00000000	      0.00000000	     27.73271982	      5.87300901	     15.24563864	     14.43682162	     -4.01828556	    110.15749570	      8.76151039	      2.46817154	     -6.25784345	     -6.29841570	     23.46895919	      2.37064688	    168.00538283	      1.29847309	      8.79410189	     -7.56093533	     -3.83126534
      0.02127660	      2.77018487	     -5.74026569	     83.51891409	      0.22629796	      0.69317808	      0.76571290	      6.87549668	      0.75191074	      0.11973863	      8.85390063	      0.15452972	     34.28321016	     15.83766059	      0.00000000	      7.29065768	     -4.06483009	    -23.54909711	     12.90163739	      0.22517605	     39.78724084	      9.02012679	      0.00000000	     -0.08748603	      0.10014178	      1.75359314	     -0.16247030	      0.13318857	      1.86319272	     -0.14373079	      0.24348472	      1.86319272	     -0.09998778	      0.24348472	      1.53439400	     -0.08123953	      0.20420912	      1.42479443	     -0.04998952	      0.15511962	      1.31519486	     -0.62490395	      1.13282384	      9.75295899	      0.00000000	      0.00000000	     27.70682085	      6.80486095	     14.20018093	     13.89160026	     -4.11340337	    110.90472067	      8.10365056	      3.13256092	     -6.40496097	     -6.14533632	     23.01664536	      2.12700218	    168.92371661	      2.23824708	      9.81494993	     -6.65554607	     -4.00318297
      0.04255319	      2.84865545	     -5.77305110	     83.77549458	      0.22662380	      0.69258715	      0.76648632	      6.87778642	      0.86451272	      1.07483357	      8.53854593	      0.14902574	     34.36320169	     14.68894808	      0.00000000	      7.83962348	     -4.34057160	    -23.08735454	     14.09430151	      0.24599197	     39.57985650	      8.00674291	      0.00000000	     -0.07871632	      0.08090109	      1.92633910	     -0.14618408	      0.10759844	      2.04673529	     -0.12932305	      0.19670290	      2.04673529	     -0.08996489	      0.19670290	      1.68554671	     -0.07309598	      0.16497349	      1.56515052	     -0.04497851	      0.12531578	      1.44475432	     -0.56226282	      0.91516926	     10.71372016	      0.00000000	      0.00000000	     27.73725119	      6.41856465	     12.16658146	     13.45550539	     -4.24938573	    112.66581056	      7.46160533	      3.41756566	     -6.24521184	     -5.81689653	     22.51827586	      1.78509513	    168.70490559	      3.15742501	      9.79613518	     -6.16029375	     -4.18533802
      0.06382979	      3.21437480	     -5.71099095	     84.81563134	      0.22534711	      0.69237369	      0.76602857	      5.88740999	      1.50507279	      6.94082169	      6.83376239	      0.11927165	     32.87846268	      6.29201902	      0.00000000	      7.92959570	     -4.07340072	    -18.33433492	     13.94341634	      0.24335852	     38.54314895	      2.90175382	      0.00000000	     -0.07335057	      0.11218693	      1.88485065	     -0.13621935	      0.14920862	      2.00265381	     -0.12050766	      0.27277131	      2.00265381	     -0.08383237	      0.27277131	      1.64924432	     -0.06811334	      0.22877159	      1.53144115	     -0.04191252	      0.17377756	      1.41363798	     -0.52393580	      1.26908102	     10.48297384	      0.00000000	      0.00000000	     27.75597546	      5.55144596	     10.35184368	     13.07184658	     -4.45642679	    117.12608885	      6.65463766	      2.42837458	     -5.87869379	     -5.39729560	     21.77449580	      1.29793405	    163.17797143	      4.66752626	      8.00454370	     -6.41797123	     -4.43221160
      0.08510638	      3.41233246	     -5.73029842	     85.16082741	      0.22500357	      0.69204562	      0.76650399	      5.83392439	      1.64381788	      7.04634605	      6.55423083	      0.11439291	     32.93393471	      6.09717146	      0.00000000	      8.30522958	     -4.35360619	    -17.95771733	     14.59925541	      0.25480508	     38.78558235	      2.86760577	      0.00000000	     -0.07323387	      0.12580489	      1.96911410	     -0.13600263	      0.16732050	      2.09218373	     -0.12031593	      0.30588201	      2.09218373	     -0.08369899	      0.30588201	      1.72297484	     -0.06800497	      0.25654133	      1.59990521	     -0.04184584	      0.19487177	      1.47683558	     -0.52310223	      1.42313007	     10.95162189	      0.00000000	      0.00000000	     27.83907454	      4.82515808	      8.37615862	     12.57514748	     -4.62878446	    117.74280767	      6.06456714	      2.70995948	     -5.72573853	     -4.73441525	     21.35651004	      0.70056589	    159.29017038	      6.31255500	      4.62922741	     -7.25372577	     -4.96299951
